#!OML:ASF F:\VICON\USERDATA\INSTALL\rory3\rory3.ASF
:FULLY-SPECIFIED
:DEGREES
829
root 3.05836 16.7631 0.141718 16.0969 4.3259 10.6603
lowerback -6.84354 2.1463 1.32651
upperback -2.30854 2.95549 -7.19443
thorax 1.89575 1.49679 -8.04881
lowerneck -2.12637 14.5391 5.41871
upperneck 47.601 24.2694 -1.84491
head 20.1112 10.6495 2.2574
rclavicle 3.47873e-016 -1.43125e-014
rhumerus -36.966 3.60138 -93.0047
rradius 42.9714
rwrist -38.7173
rhand -9.60715 -50.4732
rfingers 7.12502
rthumb 16.3619 -79.803
lclavicle 3.47873e-016 -1.43125e-014
lhumerus -27.5953 -20.5332 82.3599
lradius 41.1547
lwrist 74.3057
lhand -38.5969 -13.3494
lfingers 7.12502
lthumb -11.6149 16.3087
rfemur -51.4768 24.232 -6.89907
rtibia 73.8053
rfoot 6.28726 9.50897
rtoes -37.4244
lfemur -32.1745 -7.25398 -36.1857
ltibia 37.9065
lfoot -17.1535 11.5161
ltoes 5.52531
830
root 3.05889 16.7669 0.14608 16.0745 4.25656 10.6708
lowerback -6.90881 2.13728 1.28162
upperback -2.25565 2.94998 -7.17451
thorax 1.9832 1.49673 -7.99864
lowerneck -2.12435 14.5647 5.38937
upperneck 47.5769 24.3064 -1.85184
head 20.0919 10.6595 2.26195
rclavicle -4.96962e-017 -2.70347e-014
rhumerus -36.8864 3.63743 -92.9469
rradius 42.9928
rwrist -38.4539
rhand -8.97953 -50.8582
rfingers 7.12502
rthumb 16.9661 -80.1372
lclavicle -4.96962e-017 -2.70347e-014
lhumerus -27.4893 -20.4503 82.3368
lradius 41.0731
lwrist 74.2734
lhand -38.5038 -13.6557
lfingers 7.12502
lthumb -11.5252 16.0075
rfemur -51.442 24.2798 -6.92996
rtibia 73.7752
rfoot 6.38206 9.47902
rtoes -36.9873
lfemur -32.21 -7.20733 -36.2042
ltibia 37.9223
lfoot -17.1985 11.4426
ltoes 6.28444
831
root 3.05768 16.7695 0.14741 16.1069 4.30585 10.6538
lowerback -6.95077 2.08864 1.25848
upperback -2.23797 2.88675 -7.1314
thorax 2.0122 1.46538 -7.94293
lowerneck -2.09241 14.5842 5.36813
upperneck 47.5084 24.356 -1.92704
head 20.0545 10.6721 2.23145
rclavicle 2.88238e-015 -7.95139e-016
rhumerus -36.7928 3.60166 -92.8245
rradius 43.0051
rwrist -37.9397
rhand -9.79625 -50.5741
rfingers 7.12502
rthumb 16.1798 -79.9188
lclavicle 2.88238e-015 -7.95139e-016
lhumerus -27.4565 -20.3597 82.3259
lradius 41.0921
lwrist 74.2687
lhand -38.3309 -13.9702
lfingers 7.12502
lthumb -11.3584 15.7022
rfemur -51.4309 24.2309 -6.90111
rtibia 73.7443
rfoot 6.47771 9.40114
rtoes -36.6141
lfemur -32.2629 -7.25636 -36.1499
ltibia 37.9398
lfoot -17.2881 11.3041
ltoes 7.19978
832
root 3.05873 16.7693 0.146297 16.1215 4.41458 10.6716
lowerback -6.86353 2.05235 1.28677
upperback -2.29019 2.83146 -7.13841
thorax 1.90259 1.43415 -7.97574
lowerneck -2.02059 14.5696 5.39636
upperneck 47.5045 24.3309 -1.93405
head 20.0386 10.671 2.21154
rclavicle 4.57205e-014 1.78906e-014
rhumerus -36.8121 3.47151 -92.7251
rradius 43.1436
rwrist -37.678
rhand -10.5138 -49.8779
rfingers 7.12502
rthumb 15.4888 -79.2775
lclavicle 4.57205e-014 1.78906e-014
lhumerus -27.5422 -20.3682 82.3441
lradius 41.1318
lwrist 74.297
lhand -38.3584 -13.9509
lfingers 7.12502
lthumb -11.3849 15.72
rfemur -51.3554 24.0831 -6.85626
rtibia 73.7342
rfoot 6.39328 9.46055
rtoes -36.7002
lfemur -32.2408 -7.33503 -36.1514
ltibia 37.9575
lfoot -17.3324 11.2588
ltoes 7.10749
833
root 3.05992 16.7719 0.14677 16.1111 4.45271 10.6898
lowerback -6.78251 2.04673 1.32342
upperback -2.33057 2.81827 -7.16607
thorax 1.81645 1.42501 -8.03147
lowerneck -1.99399 14.5437 5.41595
upperneck 47.511 24.2767 -1.91141
head 20.0297 10.6571 2.20604
rclavicle -1.7344e-014 3.02153e-014
rhumerus -36.8982 3.52726 -92.8201
rradius 43.0464
rwrist -37.8698
rhand -10.9707 -48.4519
rfingers 7.12502
rthumb 15.0487 -77.8849
lclavicle -1.7344e-014 3.02153e-014
lhumerus -27.5889 -20.4296 82.35
lradius 41.1354
lwrist 74.3018
lhand -38.5488 -14.1191
lfingers 7.12502
lthumb -11.5686 15.5416
rfemur -51.2767 24.0431 -6.83761
rtibia 73.7129
rfoot 6.30492 9.49476
rtoes -36.7971
lfemur -32.2336 -7.35729 -36.1662
ltibia 37.9624
lfoot -17.3612 11.2086
ltoes 7.06234
834
root 3.05765 16.7746 0.147095 16.116 4.42579 10.6526
lowerback -6.77642 2.05093 1.33189
upperback -2.32798 2.82297 -7.1557
thorax 1.81634 1.42738 -8.02479
lowerneck -2.06313 14.5439 5.37822
upperneck 47.5214 24.2674 -1.87703
head 20.0371 10.6466 2.23217
rclavicle 1.70955e-014 -1.86858e-014
rhumerus -36.9142 3.61527 -92.8898
rradius 43.0899
rwrist -38.259
rhand -8.99441 -50.7656
rfingers 7.12502
rthumb 16.9518 -80.0459
lclavicle 1.70955e-014 -1.86858e-014
lhumerus -27.5197 -20.4336 82.3357
lradius 41.0543
lwrist 74.2374
lhand -38.4209 -14.5857
lfingers 7.12502
lthumb -11.4452 15.0819
rfemur -51.308 24.0881 -6.81595
rtibia 73.6805
rfoot 6.39681 9.39399
rtoes -36.5038
lfemur -32.3045 -7.33248 -36.111
ltibia 37.9851
lfoot -17.3363 11.1625
ltoes 7.43869
835
root 3.05415 16.7757 0.147764 16.0873 4.40767 10.6245
lowerback -6.74618 2.04016 1.29351
upperback -2.31589 2.80983 -7.12411
thorax 1.80674 1.42049 -7.96978
lowerneck -2.1391 14.5695 5.31799
upperneck 47.5736 24.3088 -1.82848
head 20.0724 10.6511 2.28102
rclavicle 2.99668e-014 -8.62725e-014
rhumerus -36.9071 3.69615 -92.8934
rradius 43.0709
rwrist -38.2833
rhand -9.79615 -51.2919
rfingers 7.12502
rthumb 16.1799 -80.6367
lclavicle 2.99668e-014 -8.62725e-014
lhumerus -27.4654 -20.36 82.3146
lradius 41.0019
lwrist 74.1996
lhand -38.2346 -14.4446
lfingers 7.12502
lthumb -11.2655 15.2329
rfemur -51.2988 24.1463 -6.77502
rtibia 73.6423
rfoot 6.5128 9.34406
rtoes -36.3132
lfemur -32.3208 -7.32627 -36.0572
ltibia 38.0529
lfoot -17.3588 11.1826
ltoes 7.6825
836
root 3.05109 16.771 0.149507 16.0782 4.4162 10.5966
lowerback -6.76322 2.03532 1.29084
upperback -2.32314 2.80323 -7.11486
thorax 1.80712 1.41693 -7.9584
lowerneck -2.14479 14.5808 5.33578
upperneck 47.6291 24.3195 -1.78817
head 20.1074 10.6586 2.30396
rclavicle -2.18663e-015 6.24184e-014
rhumerus -36.8964 3.76691 -92.9426
rradius 43.0259
rwrist -38.38
rhand -9.81893 -51.4723
rfingers 7.12502
rthumb 16.158 -80.8188
lclavicle -2.18663e-015 6.24184e-014
lhumerus -27.4718 -20.3488 82.2785
lradius 41.0375
lwrist 74.2569
lhand -38.2927 -14.0555
lfingers 7.12502
lthumb -11.3215 15.6189
rfemur -51.1776 24.1267 -6.66224
rtibia 73.5881
rfoot 5.81061 9.62718
rtoes -37.8925
lfemur -32.3626 -7.35412 -36.0022
ltibia 38.1583
lfoot -17.4382 11.2067
ltoes 7.75687
837
root 3.04761 16.76 0.151333 16.111 4.45378 10.6199
lowerback -6.82681 2.02735 1.25132
upperback -2.33306 2.79655 -7.1265
thorax 1.83001 1.41384 -7.94703
lowerneck -2.09332 14.5681 5.40358
upperneck 47.6919 24.2848 -1.75004
head 20.1403 10.6591 2.30573
rclavicle -1.38155e-014 7.15625e-015
rhumerus -36.8299 3.83939 -92.9906
rradius 42.9613
rwrist -38.636
rhand -9.0493 -51.1098
rfingers 7.12502
rthumb 16.899 -80.3946
lclavicle -1.38155e-014 7.15625e-015
lhumerus -27.4953 -20.3884 82.2836
lradius 41.0754
lwrist 74.2518
lhand -38.6237 -14.0806
lfingers 7.12502
lthumb -11.6408 15.5761
rfemur -50.982 23.9726 -6.55646
rtibia 73.5358
rfoot 4.54146 10.0672
rtoes -40.7892
lfemur -32.4643 -7.40189 -36.0044
ltibia 38.2888
lfoot -17.5008 11.1883
ltoes 7.92652
838
root 3.04484 16.7532 0.152101 16.1222 4.55429 10.7191
lowerback -6.86393 1.96882 1.13813
upperback -2.30206 2.72794 -7.1242
thorax 1.86761 1.3804 -7.88354
lowerneck -2.16559 14.5756 5.28165
upperneck 47.7482 24.2659 -1.62558
head 20.1388 10.6407 2.38192
rclavicle 1.87852e-014 -4.41302e-014
rhumerus -36.7566 3.91907 -92.9802
rradius 42.8863
rwrist -38.6795
rhand -9.71915 -51.2592
rfingers 7.12502
rthumb 16.2541 -80.5979
lclavicle 1.87852e-014 -4.41302e-014
lhumerus -27.4465 -20.3333 82.2965
lradius 41.0471
lwrist 74.1932
lhand -38.9023 -14.1131
lfingers 7.12502
lthumb -11.9095 15.5281
rfemur -50.8111 23.8412 -6.5454
rtibia 73.5197
rfoot 3.89221 10.2541
rtoes -42.459
lfemur -32.4972 -7.48109 -36.0833
ltibia 38.4
lfoot -17.5155 11.1797
ltoes 7.77091
